<svg xmlns="http://www.w3.org/2000/svg" viewBox="0 0 420 360" fill="none"><defs><linearGradient id="paper" x2=".8" y2="1"><stop stop-color="#fffef7"/><stop offset="1" stop-color="#dac493"/></linearGradient><linearGradient id="white" x2=".9" y2="1"><stop stop-color="#fff"/><stop offset="1" stop-color="#e2ece8"/></linearGradient><linearGradient id="green" x2=".8" y2="1"><stop stop-color="#59b297"/><stop offset=".5" stop-color="#16715b"/><stop offset="1" stop-color="#084537"/></linearGradient><linearGradient id="metal" x2="1" y2="1"><stop stop-color="#f6fcff"/><stop offset=".3" stop-color="#c8dce0"/><stop offset=".6" stop-color="#eef7f6"/><stop offset="1" stop-color="#9fb8be"/></linearGradient><radialGradient id="pill"><stop stop-color="#fff"/><stop offset=".65" stop-color="#f4f9f7"/><stop offset="1" stop-color="#bdceca"/></radialGradient><filter id="shadow" x="-40%" y="-40%" width="180%" height="190%"><feDropShadow dx="0" dy="13" stdDeviation="10" flood-color="#205844" flood-opacity=".17"/></filter><filter id="small" x="-50%" y="-50%" width="200%" height="210%"><feDropShadow dx="0" dy="5" stdDeviation="4" flood-color="#1b5144" flood-opacity=".22"/></filter></defs><ellipse cx="226" cy="309" rx="136" ry="17" fill="#917850" opacity=".12"/><g transform="rotate(9 231 156)" filter="url(#shadow)"><rect x="160" y="33" width="139" height="242" rx="49" fill="url(#white)" stroke="#bac8c2" stroke-width="2"/><rect x="173" y="72" width="113" height="137" rx="23" fill="#243c35"/><rect x="185" y="93" width="89" height="79" rx="8" fill="#c8d3b7"/><path d="M200 113H260M200 126H260M200 139H245" stroke="#667965" stroke-width="5" stroke-linecap="round"/><circle cx="231" cy="238" r="14" fill="url(#green)"/><path d="M221 235L231 243L241 230" stroke="#fff" stroke-width="3"/><rect x="217" y="274" width="29" height="37" fill="#faf9e7"/><path d="M223 285V308M230 285V308M237 285V308" stroke="#acaa85" stroke-width="2"/></g><g transform="rotate(-14 132 281)" filter="url(#small)"><rect x="45" y="266" width="136" height="27" rx="13" fill="url(#white)"/><rect x="135" y="266" width="46" height="27" rx="9" fill="url(#green)"/><path d="M64 270V288M72 270V288" stroke="#b7c5bf" stroke-width="2"/></g></svg>