<svg xmlns="http://www.w3.org/2000/svg" viewBox="0 0 520 440" fill="none"><defs><linearGradient id="paper" x2=".8" y2="1"><stop stop-color="#fffef7"/><stop offset="1" stop-color="#dac493"/></linearGradient><linearGradient id="white" x2=".9" y2="1"><stop stop-color="#fff"/><stop offset="1" stop-color="#e2ece8"/></linearGradient><linearGradient id="green" x2=".8" y2="1"><stop stop-color="#59b297"/><stop offset=".5" stop-color="#16715b"/><stop offset="1" stop-color="#084537"/></linearGradient><linearGradient id="metal" x2="1" y2="1"><stop stop-color="#f6fcff"/><stop offset=".3" stop-color="#c8dce0"/><stop offset=".6" stop-color="#eef7f6"/><stop offset="1" stop-color="#9fb8be"/></linearGradient><radialGradient id="pill"><stop stop-color="#fff"/><stop offset=".65" stop-color="#f4f9f7"/><stop offset="1" stop-color="#bdceca"/></radialGradient><filter id="shadow" x="-40%" y="-40%" width="180%" height="190%"><feDropShadow dx="0" dy="13" stdDeviation="10" flood-color="#205844" flood-opacity=".17"/></filter><filter id="small" x="-50%" y="-50%" width="200%" height="210%"><feDropShadow dx="0" dy="5" stdDeviation="4" flood-color="#1b5144" flood-opacity=".22"/></filter></defs><ellipse cx="265" cy="243" rx="215" ry="159" fill="#def3e7"/><ellipse cx="276" cy="386" rx="183" ry="16" fill="#438763" opacity=".10"/><g stroke="#4b8c52" stroke-width="3"><path d="M126 288Q92 211 73 151M128 270Q144 193 174 140"/></g><g fill="url(#green)"><path d="M93 231Q38 211 41 172Q93 176 93 231Z"/><path d="M100 246Q147 201 139 171Q103 177 100 246Z"/><path d="M78 182Q38 146 52 111Q89 131 78 182Z"/><path d="M148 204Q179 157 207 173Q202 207 148 204Z"/></g><g filter="url(#shadow)"><path d="M143 159L302 174L338 354L148 367L123 327Z" fill="url(#paper)"/><path d="M143 159L167 183L320 193L302 174Z" fill="#d4b887"/><path d="M123 327L143 159L167 183L173 348L148 367Z" fill="#b99c6a"/><path d="M188 196L190 149Q192 120 220 123Q250 125 249 154L249 202" stroke="#fff9e4" stroke-width="9"/><path d="M181 192L183 149Q183 111 220 116Q258 119 258 155L257 197" stroke="#ac905b" stroke-width="3"/><path d="M213 232L238 233L237 255L260 255L259 281L234 280L233 305L208 304L209 279L184 278L185 252L211 253Z" fill="url(#green)"/><path d="M177 330Q244 338 308 321" stroke="#fff8e5" stroke-width="2"/></g><g transform="translate(339 217) rotate(8)" filter="url(#shadow)"><rect x="0" y="23" width="74" height="139" rx="21" fill="url(#green)"/><rect x="7" y="0" width="60" height="37" rx="8" fill="url(#white)"/><path d="M16 4V30M24 4V30M32 4V30M40 4V30M48 4V30M56 4V30" stroke="#c1d9cc" stroke-width="2"/><rect x="3" y="72" width="68" height="59" rx="4" fill="#fffdf4"/><path d="M27 85H45V102H54V112H17V102H27Z" fill="#6ca883"/><path d="M13 123H59" stroke="#d2c29f" stroke-width="3"/><path d="M10 49V65" stroke="#95c8b4" stroke-width="4" stroke-linecap="round"/></g><g transform="translate(93 275) rotate(-8)" filter="url(#small)"><rect width="48" height="92" rx="13" fill="#bb7840"/><rect y="25" width="48" height="46" rx="3" fill="#fff5df"/><rect x="3" y="-13" width="42" height="24" rx="5" fill="url(#white)"/><path d="M16 47H32M24 39V55" stroke="#b48b43" stroke-width="5"/></g><g fill="url(#green)"><path d="M295 385Q256 359 268 326Q301 332 295 385Z"/><path d="M295 385Q310 331 343 337Q339 369 295 385Z"/><path d="M425 175Q407 134 433 113Q454 144 425 175Z"/><path d="M437 190Q474 157 489 177Q473 203 437 190Z"/></g><path d="M307 67L310 79L322 82L310 85L307 97L304 85L292 82L304 79Z" fill="#90c2a5"/></svg>